<svg xmlns="http://www.w3.org/2000/svg"  viewBox="0 0 100 100" width="300px" height="300px" baseProfile="basic"><path fill="#336843" d="M79.248,32.508c0,7.364,0,14.729,0,22.093c0,5.359,0,10.718,0,16.078	c0,3.694,1.771,10.024-1.315,12.921c-2.942,2.762-10.496,1.275-14.156,1.273c-5.883-0.004-11.766-0.002-17.65-0.002	c-4.525,0-9.051-0.001-13.576-0.006c-2.914-0.004-8.288,1.148-10.467-1.394c-2.034-2.338-1.006-7.994-1.018-10.93	c-0.023-5.214-0.068-10.428-0.121-15.642c-0.104-10.18-0.539-20.427-0.236-30.604c0.197-6.605-1.546-14.919,6.654-16.075	c5.335-0.752,10.611,0.965,15.924,0.965c3.438,0,6.876,0,10.314,0c0.612,0,3.867-0.456,4.323,0	C57.931,11.192,79.248,32.508,79.248,32.508z"/><path fill="#19805c" d="M77.746,29.55c-6.198-4.589-10.861-11.192-16.956-16.04c-0.286-1.093-1.198-1.944-2.407-1.944	c-1.292,0-2.58,1.145-2.5,2.5c0.176,2.966,0.352,5.932,0.528,8.897c0.167,2.814-0.175,6.372,1.95,8.556	c1.877,1.928,4.658,2.171,7.186,2.38c2.895,0.239,5.799,0.345,8.703,0.332c0.398-0.002,0.774-0.111,1.112-0.286	c1.087,0.661,2.676,0.059,3.28-0.974C79.387,31.698,78.835,30.356,77.746,29.55z"/><path fill="#f2f2f2" d="M66.181,46.374c-0.235-0.166-0.521-0.264-0.838-0.263c-1.413,0.004-2.825,0.057-4.234,0.153	c-8.981-0.661-17.994-0.77-26.991-0.324c-0.873,0.043-1.347,0.686-1.429,1.365c-0.221,0.284-0.357,0.645-0.353,0.963	c0.028,2.084,0.056,4.168,0.084,6.252c-0.103,1.879-0.103,3.762,0.037,5.648c0.01,0.142,0.032,0.282,0.045,0.423	c0.046,3.413,0.091,6.825,0.137,10.238c0.003,0.238,0.069,0.449,0.171,0.635c-0.001,0.066-0.001,0.132-0.002,0.197	c-0.006,0.588,0.271,0.995,0.656,1.225c0.234,0.19,0.546,0.303,0.948,0.276c2.705-0.182,5.413-0.31,8.121-0.392	c5.497,0.234,10.999,0.272,16.499,0.125c2.012,0.09,4.022,0.2,6.032,0.345c0.299,0.022,0.546-0.039,0.752-0.146	c0.028-0.005,0.058-0.006,0.084-0.013c0.732-0.193,1.032-0.805,1.05-1.47c0.133-0.209,0.222-0.46,0.232-0.766	c0.245-7.678,0.365-15.359,0.361-23.041C67.544,46.897,66.882,46.427,66.181,46.374z M35.941,57.658	c0.001-0.084,0.002-0.168,0.002-0.253c2.643,0.024,5.285,0.049,7.928,0.073c-0.067,1.452-0.106,2.905-0.119,4.359	c-2.618,0.043-5.236,0.116-7.853,0.231C35.913,60.599,35.927,59.128,35.941,57.658z M42.533,69.771	c-2.236-0.095-4.47-0.226-6.703-0.383c0-0.011,0-0.022,0-0.033c0.137-1.139,0.236-2.281,0.197-3.43	c-0.003-0.08-0.012-0.16-0.016-0.241c2.575-0.269,5.156-0.472,7.739-0.616c0.026,1.471,0.068,2.941,0.148,4.411	c0.005,0.092,0.022,0.175,0.04,0.259C43.471,69.749,43.002,69.756,42.533,69.771z M44.025,54.48	c-2.685-0.025-5.369-0.049-8.054-0.074c0.011-1.212,0.023-2.423,0.034-3.635c0.004-0.385,0.003-0.796-0.021-1.202	c2.832,0.002,5.664,0.001,8.496,0.003C44.296,51.205,44.142,52.841,44.025,54.48z M48.246,49.573	c2.922,0.001,5.844,0.002,8.766,0.003c0.087,0.019,0.166,0.055,0.259,0.06c2.171,0.13,4.342,0.26,6.513,0.39	c-0.104,0.182-0.175,0.396-0.199,0.642c-0.126,1.33-0.213,2.659-0.28,3.99c-5.057-0.047-10.113-0.093-15.17-0.14	c0.059-1.509,0.114-3.019,0.157-4.529C48.297,49.836,48.276,49.701,48.246,49.573z M48.005,57.516	c5.066,0.047,10.133,0.093,15.199,0.14c-0.026,1.507-0.016,3.013,0.032,4.518c-3.828-0.257-7.662-0.37-11.494-0.35	c-1.318-0.016-2.635-0.029-3.953-0.026C47.869,60.372,47.939,58.944,48.005,57.516z M59.033,69.895	c-3.917-0.176-7.838-0.247-11.758-0.213c0.118-1.593,0.23-3.187,0.33-4.781c1.379-0.043,2.758-0.069,4.137-0.076	c3.881,0.046,7.762,0.154,11.639,0.36c0.097,1.514,0.224,3.026,0.393,4.537C62.194,69.796,60.614,69.853,59.033,69.895z"/><path d="M23.254,28.048c0,0-0.219,2.938-0.37,8.266c-0.174,5.326-0.153,13.045-0.245,22.549c-0.06,4.773-0.125,9.983-0.195,15.555	c-0.038,1.297-0.212,2.738-0.289,4.217c-0.076,1.486-0.125,3.037,0.214,4.725c0.17,0.834,0.482,1.752,1.127,2.589	c0.641,0.828,1.551,1.401,2.434,1.728c1.794,0.656,3.502,0.635,5.142,0.609c0.818-0.027,1.625-0.079,2.408-0.125l1.146-0.051	l1.152,0.004c1.612,0.017,3.242,0.035,4.888,0.053c3.298,0.028,6.661,0.057,10.081,0.087c3.427,0.019,6.911,0.037,10.445,0.057	c1.762,0.007,3.537,0.013,5.323,0.02c1.632,0.035,3.479,0.253,5.335,0.339c1.242,0.062,2.501,0.097,3.801,0.006	c1.297-0.098,2.643-0.281,4.029-0.853c0.343-0.127,0.691-0.349,1.029-0.529c0.333-0.219,0.667-0.487,0.971-0.753	c0.565-0.574,1.047-1.227,1.363-1.917c0.653-1.382,0.839-2.768,0.903-4.051c0.102-2.568-0.31-4.92-0.473-7.07	c-0.081-0.998-0.052-2.153-0.068-3.277c-0.009-1.124-0.018-2.24-0.028-3.35c-0.093-8.878-0.269-17.28-0.693-25.054	c-0.11-1.944-0.237-3.849-0.419-5.72c-0.093-0.937-0.195-1.863-0.341-2.797c-0.079-0.471-0.16-0.938-0.294-1.442	c-0.025-0.121-0.077-0.257-0.139-0.43c-0.052-0.18-0.136-0.339-0.247-0.482c-0.17-0.311-0.488-0.59-0.614-0.698	c-2.646-2.413-5.251-4.498-7.507-6.627c-2.213-2.159-4.348-4.28-6.385-6.078c-2.045-1.828-3.949-3.402-5.79-4.796	c-0.277-0.279-0.672-0.308-1.024-0.361c-0.312-0.017-0.605-0.031-0.893-0.029c-0.576-0.005-1.129,0.007-1.665,0.02	c-1.067,0.041-2.066,0.079-2.994,0.114c-1.846,0.097-3.412,0.179-4.681,0.246c-2.52,0.129-3.858,0.197-3.858,0.197	s1.33,0.044,3.864,0.059c1.27,0.01,2.838,0.023,4.685,0.038c0.925,0.017,1.921,0.036,2.983,0.056	c0.53,0.017,1.079,0.035,1.637,0.071c0.28,0.012,0.561,0.045,0.832,0.07c0.215,0.029,0.445,0.064,0.594,0.248	c1.658,1.416,3.513,3.116,5.423,5.01c1.942,1.901,3.882,4.025,6.068,6.358c2.22,2.292,4.76,4.506,7.238,6.952	c0.346,0.349,0.231,0.218,0.354,0.608c0.081,0.364,0.141,0.786,0.196,1.21c0.102,0.86,0.168,1.759,0.226,2.67	c0.112,1.824,0.173,3.71,0.22,5.637c0.17,7.713,0.128,16.099,0.063,24.955c-0.009,1.108-0.019,2.223-0.028,3.344	c0.001,1.121-0.052,2.228,0.026,3.499c0.16,2.38,0.503,4.599,0.391,6.687c-0.054,1.029-0.233,2.001-0.597,2.743	c-0.173,0.38-0.415,0.671-0.669,0.945c-0.146,0.11-0.274,0.218-0.43,0.326c-0.19,0.083-0.336,0.202-0.551,0.275	c-1.668,0.671-4.035,0.687-6.333,0.566c-1.771-0.079-3.514-0.294-5.469-0.334c-1.799,0.003-3.587,0.005-5.361,0.008	c-3.534,0.017-7.018,0.035-10.444,0.052c-3.421,0.028-6.783,0.055-10.081,0.082c-1.646,0.017-3.275,0.034-4.888,0.051l-1.258,0.025	l-1.246,0.084c-0.781,0.06-1.558,0.12-2.33,0.179c-1.485,0.077-2.961,0.07-4.071-0.32c-1.119-0.389-1.641-1.028-1.953-2.314	c-0.294-1.231-0.323-2.648-0.292-4.045c0.024-1.412,0.151-2.806,0.143-4.307c-0.154-5.581-0.299-10.799-0.431-15.58	c-0.335-9.53-0.782-17.211-0.927-22.532C23.248,30.995,23.254,28.048,23.254,28.048z"/></svg>